<?xml version="1.0" encoding="UTF-8"?>
<svg xmlns="http://www.w3.org/2000/svg" xmlns:xlink="http://www.w3.org/1999/xlink" width="50px" height="50px" viewBox="0 0 50 29" version="1.1">
<g id="surface1">
<path style=" stroke:none;fill-rule:evenodd;fill:rgb(63.921569%,73.333333%,78.431373%);fill-opacity:1;" d="M 9.1875 4.769531 L 2.9375 4.769531 C 2.492188 4.769531 2.128906 5.125 2.128906 5.558594 C 2.128906 5.996094 2.492188 6.351562 2.9375 6.351562 L 9.1875 6.351562 C 9.632812 6.351562 9.992188 5.996094 9.992188 5.558594 C 9.992188 5.125 9.632812 4.769531 9.1875 4.769531 Z M 9.722656 15.78125 L 4.007812 15.78125 C 3.566406 15.78125 3.207031 16.132812 3.207031 16.566406 C 3.207031 17 3.566406 17.351562 4.007812 17.351562 L 9.722656 17.351562 C 10.164062 17.351562 10.523438 17 10.523438 16.566406 C 10.523438 16.132812 10.164062 15.78125 9.722656 15.78125 Z M 7.585938 11.058594 L 0.804688 11.058594 C 0.359375 11.058594 -0.00390625 11.414062 -0.00390625 11.851562 C -0.00390625 12.285156 0.359375 12.640625 0.804688 12.640625 L 7.589844 12.640625 C 8.035156 12.640625 8.394531 12.285156 8.394531 11.847656 C 8.390625 11.410156 8.03125 11.058594 7.585938 11.058594 Z M 7.585938 22.070312 L 6.925781 22.070312 C 6.484375 22.070312 6.125 22.421875 6.125 22.855469 C 6.125 23.289062 6.484375 23.640625 6.925781 23.640625 L 7.582031 23.640625 C 8.023438 23.640625 8.382812 23.289062 8.382812 22.855469 C 8.386719 22.421875 8.027344 22.070312 7.585938 22.070312 Z M 4.253906 22.070312 L 0.804688 22.070312 C 0.359375 22.070312 0.00390625 22.421875 0.00390625 22.855469 C 0.00390625 23.289062 0.359375 23.640625 0.804688 23.640625 L 4.257812 23.640625 C 4.703125 23.640625 5.058594 23.285156 5.058594 22.851562 C 5.058594 22.417969 4.699219 22.070312 4.253906 22.070312 Z M 41.867188 2.210938 L 35.074219 2.210938 L 35.074219 0.789062 C 35.070312 0.359375 34.714844 0.0078125 34.273438 0.0117188 L 21.847656 0.0117188 C 21.40625 0.0117188 21.046875 0.363281 21.046875 0.796875 C 21.046875 1.230469 21.40625 1.578125 21.847656 1.578125 L 33.472656 1.578125 L 33.472656 18.800781 C 33.460938 19.085938 33.613281 19.355469 33.863281 19.503906 C 34.117188 19.652344 34.429688 19.652344 34.683594 19.503906 C 34.933594 19.355469 35.085938 19.085938 35.074219 18.800781 L 35.074219 3.78125 L 41.867188 3.78125 C 45.539062 3.785156 48.507812 6.703125 48.507812 10.300781 L 48.507812 23.589844 L 46.46875 23.589844 C 46.074219 21.175781 43.949219 19.398438 41.457031 19.398438 C 38.960938 19.398438 36.835938 21.175781 36.445312 23.589844 L 35.070312 23.589844 L 35.070312 22.46875 C 35.082031 22.183594 34.929688 21.914062 34.679688 21.765625 C 34.425781 21.621094 34.113281 21.621094 33.859375 21.765625 C 33.609375 21.914062 33.457031 22.183594 33.46875 22.46875 L 33.46875 23.589844 L 24.960938 23.589844 C 24.566406 21.175781 22.445312 19.402344 19.949219 19.402344 C 17.457031 19.402344 15.332031 21.175781 14.9375 23.589844 L 13.269531 23.589844 L 13.269531 1.578125 L 18.640625 1.578125 C 19.082031 1.578125 19.441406 1.230469 19.441406 0.796875 C 19.441406 0.363281 19.082031 0.0117188 18.640625 0.0117188 L 12.46875 0.0117188 C 12.03125 0.0078125 11.671875 0.359375 11.667969 0.789062 L 11.667969 24.378906 C 11.671875 24.8125 12.027344 25.167969 12.46875 25.171875 L 14.9375 25.171875 C 15.332031 27.582031 17.457031 29.359375 19.949219 29.359375 C 22.445312 29.359375 24.566406 27.582031 24.960938 25.171875 L 36.445312 25.171875 C 36.835938 27.585938 38.960938 29.359375 41.457031 29.359375 C 43.949219 29.359375 46.074219 27.585938 46.46875 25.171875 L 49.308594 25.171875 C 49.75 25.167969 50.109375 24.8125 50.109375 24.378906 L 50.109375 10.300781 C 50.105469 5.839844 46.421875 2.21875 41.867188 2.210938 Z M 19.953125 27.789062 C 18.03125 27.796875 16.46875 26.269531 16.464844 24.386719 C 16.460938 22.503906 18.015625 20.972656 19.941406 20.96875 C 21.863281 20.96875 23.421875 22.496094 23.421875 24.378906 C 23.421875 26.257812 21.871094 27.785156 19.953125 27.789062 Z M 41.460938 27.789062 C 39.542969 27.785156 37.992188 26.257812 37.988281 24.378906 C 37.996094 22.503906 39.550781 20.988281 41.464844 20.988281 C 43.378906 20.992188 44.929688 22.515625 44.929688 24.394531 C 44.925781 26.269531 43.375 27.789062 41.460938 27.789062 Z M 41.867188 5.351562 L 37.480469 5.351562 C 37.035156 5.351562 36.679688 5.707031 36.679688 6.140625 L 36.679688 13.53125 C 36.679688 13.964844 37.035156 14.316406 37.480469 14.320312 L 46.109375 14.320312 C 46.550781 14.316406 46.910156 13.964844 46.910156 13.53125 L 46.910156 10.300781 C 46.910156 7.570312 44.65625 5.351562 41.867188 5.351562 Z M 45.304688 12.738281 L 38.28125 12.738281 L 38.28125 6.929688 L 41.867188 6.929688 C 43.765625 6.933594 45.300781 8.441406 45.304688 10.300781 Z M 19.953125 22.351562 C 18.808594 22.347656 17.878906 23.253906 17.875 24.375 C 17.875 25.496094 18.800781 26.410156 19.945312 26.410156 C 21.089844 26.410156 22.019531 25.5 22.019531 24.378906 C 22.019531 23.261719 21.097656 22.351562 19.953125 22.351562 Z M 19.953125 24.839844 C 19.695312 24.835938 19.488281 24.632812 19.488281 24.378906 C 19.5 24.136719 19.707031 23.945312 19.953125 23.945312 C 20.203125 23.945312 20.40625 24.136719 20.417969 24.378906 C 20.417969 24.632812 20.210938 24.835938 19.953125 24.839844 Z M 41.460938 22.351562 C 40.316406 22.347656 39.382812 23.253906 39.382812 24.375 C 39.378906 25.5 40.308594 26.410156 41.453125 26.410156 C 42.597656 26.410156 43.527344 25.5 43.527344 24.378906 C 43.527344 23.261719 42.601562 22.351562 41.460938 22.351562 Z M 41.460938 24.839844 C 41.203125 24.835938 40.996094 24.632812 40.996094 24.378906 C 40.996094 24.128906 41.203125 23.925781 41.460938 23.925781 C 41.714844 23.925781 41.921875 24.128906 41.921875 24.378906 C 41.921875 24.632812 41.714844 24.835938 41.460938 24.839844 Z M 46.105469 16.46875 C 45.664062 16.46875 45.304688 16.816406 45.304688 17.25 L 45.304688 19.238281 C 45.292969 19.527344 45.441406 19.796875 45.695312 19.945312 C 45.949219 20.089844 46.261719 20.089844 46.515625 19.945312 C 46.765625 19.796875 46.917969 19.527344 46.90625 19.238281 L 46.90625 17.25 C 46.902344 16.820312 46.546875 16.472656 46.109375 16.46875 Z M 46.105469 16.46875 "/>
</g>
</svg>
